#format: frame checksums
#version: 1
#hash: MD5
#tb 0: 1001/30000
#stream#, dts,        pts, duration,     size, hash
0,          0,          0,        1,    66150, b65725c68978bdaaafdf735dfbafa9e3
0,          1,          1,        1,    66150, 35be2f16bd5dedc9d3f7a016f0d71701
0,          2,          2,        1,    66150, 8c2873a97b51510d7449869e24a348f5
0,          3,          3,        1,    66150, 724a30e8ae539e797db8889dc08aec5e
0,          4,          4,        1,    66150, e3ae1246a63ea22afd026bfb859fe165
0,          5,          5,        1,    66150, 7e1fa363cf3f44c7a3019f29c14a6da4
0,          6,          6,        1,    66150, c6f26619ab5687a2a698c8766b79f2eb
0,          7,          7,        1,    66150, be5b8c50a772afe95d72bf3cc7c4fd2f
0,          8,          8,        1,    66150, 9eab1417ac249ce31c79750143d52084
0,          9,          9,        1,    66150, 9d2455048dbc3cdc2343a818c5a2bcb1
